<svg xmlns="http://www.w3.org/2000/svg" viewBox="0 0 8191.98 7953.2"><defs><style>.cls-1{fill:#e0e0e0;}</style></defs><title>tissue-paper</title><g id="Layer_2" data-name="Layer 2"><g id="Layer_1-2" data-name="Layer 1"><path class="cls-1" d="M1835.41,1043.05c154.46,0,283.28,116.54,366.72,304.92,67.07,151.46,108.55,357.45,108.55,582s-41.48,430.57-108.55,582c-83.41,188.38-212.26,304.91-366.72,304.91S1552.12,2700.41,1468.68,2512c-52.79-119.27-89.75-272.33-103.07-441.68H1118.23c14.23,423.94,99.46,802.58,230.08,1081.12,127.57,272.11,291.67,440.45,461.88,440.45s334.31-168.32,461.88-440.45c143.48-305.94,232.19-732.63,232.19-1207.49s-88.74-901.54-232.19-1207.49c-110.84-236.39-249.2-394.42-395.23-431.85h-32.29a147.76,147.76,0,0,1-48.61-8.16c-165.13,9.1-323.62,175.5-447.63,440-126.15,269-210,631.38-228.38,1037.77h246.94c14.3-163.21,50.6-310.64,101.79-426.29,83.41-188.4,212.26-304.92,366.72-304.92Zm-723.86,2295.2V7463.89l506.06-474.44a147.7,147.7,0,0,1,205.63,3.15l.25-.25,605.42,605.43,626.79-606.59a147.66,147.66,0,0,1,208.77,2.9l1.13,1.18,0,0,548.58,578.52,624.6-584.32a147.33,147.33,0,0,1,202.16.86l.27-.27L5226.44,7545l654-592.64a147.37,147.37,0,0,1,207.34,9.51l.27-.25,427.72,464.58V3862.26H1977.26a556.32,556.32,0,0,1-167,25.78c-278.4,0-523.1-208.41-698.67-549.79Zm1254.79,227.89H6487.73c53.38-44.19,102.88-101.25,148.32-168.88,225.36-335.54,339.07-903.39,339.15-1473.7.09-569.7-112.91-1132.88-340.85-1459.76-44.41-63.7-92.9-117.45-145.27-159.13H2352.93c69,86.73,131.48,189.92,186.36,306.93C2700.63,955.66,2800.4,1427,2800.4,1944s-99.77,988.37-261.11,1332.41C2488,3385.8,2430,3483.1,2366.34,3566.14ZM1907.14,8.55H6536.49a147.34,147.34,0,0,1,93.29,33.11c92.46,64.39,174.49,150.28,246.3,253.28,242.49,347.75,372.42,906.19,391.57,1479.35h776.28a148,148,0,1,1,0,296.09H7267.7c-18.93,574-148.32,1136.58-386.46,1491.12q-33.21,49.42-69.43,93.8V7805.1h-.31a147.76,147.76,0,0,1-256.48,100L5969.6,7269.27l-640.18,580.14a147.68,147.68,0,0,1-207.28,3.69l-583.67-553.5L3915.91,7882c-2.07,2.21-4.21,4.4-6.42,6.51a147.68,147.68,0,0,1-208.77-5.21L3154.1,7306.85l-616.81,596.92c-1.84,2-3.73,4.06-5.67,6a148,148,0,0,1-209.36,0l-607-607-643.32,603.12a148,148,0,0,1-256.52-100.76V2070.4H148.05a148,148,0,1,1,0-296.09H823.61c19.2-450,114-856.69,257.51-1162.69C1258.29,233.74,1515.35,0,1810.19,0a552.2,552.2,0,0,1,96.93,8.58ZM1664.23,1774.29h118.71a148,148,0,1,1,0,296.09h-120.2c11.72,125.95,38.9,237.13,76.7,322.51,35,79,69.77,127.89,96,127.89s61-48.88,96-127.89c51.34-115.93,83.1-279.41,83.1-462.89s-31.78-346.94-83.1-462.89c-35-79-69.77-127.89-96-127.89s-61,48.88-96,127.89c-36.25,81.89-62.77,187.52-75.18,307.13Z"/></g></g></svg>